<svg width="128" height="128" viewBox="0 0 128 128" fill="none" xmlns="http://www.w3.org/2000/svg">
<path d="M30.0211 0H97.28C114.235 0 128 13.7651 128 30.72V97.28C128 114.235 114.235 128 97.28 128H30.72C13.7651 128 0 114.235 0 97.28V30.0211C0 13.4528 13.4528 0 30.0211 0Z" fill="#FF32BA"/>
<path d="M89.6819 78.0723C81.4054 78.0723 74.6957 71.3626 74.6957 63.0835V53.3018H64.9165C56.64 53.3018 49.9302 46.592 49.9302 38.3155V28.5363H28.5338V49.9277H38.313C46.5894 49.9277 53.3018 56.64 53.3018 64.9165V74.6957H63.081C71.3574 74.6957 78.0672 81.4054 78.0672 89.6819V99.4611H99.4637V78.0698H89.6794L89.6819 78.0723Z" fill="white"/>
<path d="M45.8214 78.0723H28.5338V99.4662H49.9277V82.1786C49.9277 79.9104 48.0896 78.0723 45.8214 78.0723Z" fill="white"/>
<path d="M82.176 49.9277H99.4637V28.5338H78.0698V45.8214C78.0698 48.0896 79.9078 49.9277 82.176 49.9277Z" fill="white"/>
</svg>
