<?xml version="1.0" encoding="UTF-8"?>
<svg id="Layer_2" data-name="Layer 2" xmlns="http://www.w3.org/2000/svg" viewBox="0 0 128 128">
  <defs>
    <style>
      .cls-1 {
        fill: #f7fcf8;
      }
    </style>
  </defs>
  <g id="Layer_1-2" data-name="Layer 1">
    <g>
      <rect class="cls-1" width="128" height="128" rx="38.91" ry="38.91"/>
      <path d="M31.59,31.25v12.96h56.92v1.44c-15.39,2.69-30.78,5.39-46.17,8.07-1.46.3-9.89,2.19-14.78,10.28-5.81,9.62-1.57,19.63-.96,21,.57,1.29,4.9,10.61,15.34,13.14,1.79.43,3.5.61,5.08.61,4.21,0,7.49-1.21,8.96-1.82,9.54-5.97,19.95-12.02,31.24-17.98.43-.23.86-.45,1.29-.68v19.87h12.96V31.25H31.59ZM88.51,63.54c-2.48,1.26-4.95,2.54-7.4,3.83-10.49,5.53-20.9,11.51-30.98,17.78-1.02.33-2.1.51-3.11.51-.68,0-1.35-.08-2.01-.24-4.33-1.05-6.37-5.53-6.45-5.72-.09-.2-2.17-4.99.2-8.92,1.84-3.05,5.28-4.01,6.09-4.2l43.66-7.63v4.59Z"/>
    </g>
  </g>
</svg>