<?xml version="1.0" encoding="UTF-8"?>
<svg id="Layer_2" data-name="Layer 2" xmlns="http://www.w3.org/2000/svg" viewBox="0 0 1024 1024">
  <defs>
    <style>
      .cls-1 {
        fill: #00ff4c;
      }
    </style>
  </defs>
  <g id="Layer_1-2" data-name="Layer 1">
    <g>
      <rect class="cls-1" width="1024" height="1024" rx="311.28" ry="311.28"/>
      <path d="M252.74,250.01v103.64h455.35v11.56c-123.15,21.54-246.27,43.08-369.39,64.59-11.65,2.42-79.15,17.48-118.27,82.26-46.45,76.93-12.54,157.07-7.69,167.97,4.58,10.34,39.22,84.92,122.76,105.11,14.34,3.47,28.02,4.84,40.66,4.84,33.68,0,59.94-9.66,71.69-14.57,76.31-47.73,159.59-96.18,249.9-143.84,3.47-1.83,6.91-3.63,10.34-5.43v159h103.64V250.01H252.74ZM708.1,508.3c-19.87,10.08-39.61,20.3-59.22,30.64-83.9,44.26-167.21,92.05-247.81,142.2-8.18,2.65-16.79,4.09-24.91,4.09-5.43,0-10.84-.65-16.04-1.9-34.67-8.38-50.94-44.26-51.62-45.8-.72-1.6-17.35-39.94,1.6-71.33,14.73-24.39,42.26-32.08,48.71-33.59l349.29-61.05v36.73Z"/>
    </g>
  </g>
</svg>